<?xml version="1.0" encoding="UTF-8"?>
<svg xmlns="http://www.w3.org/2000/svg" xmlns:xlink="http://www.w3.org/1999/xlink" viewBox="0 0 100 100" width="100px" height="100px">
<g id="surface154783389">
<path style=" stroke:none;fill-rule:nonzero;fill:rgb(93.725491%,82.745099%,78.431374%);fill-opacity:1;" d="M 22 70.21875 C 22 77 22 83 18 87 C 24.710938 87 33 85 38.179688 77.625 C 41.914062 78.519531 45.886719 79 50 79 C 72.089844 79 90 65.121094 90 48 C 90 30.878906 72.089844 17 50 17 C 27.910156 17 10 30.878906 10 48 C 10 56.671875 14.59375 64.515625 22 70.140625 Z M 22 70.21875 "/>
<path style=" stroke:none;fill-rule:nonzero;fill:rgb(14.117648%,12.54902%,14.117648%);fill-opacity:1;" d="M 53.5 48 C 53.5 49.933594 51.933594 51.5 50 51.5 C 48.066406 51.5 46.5 49.933594 46.5 48 C 46.5 46.066406 48.066406 44.5 50 44.5 C 51.933594 44.5 53.5 46.066406 53.5 48 Z M 53.5 48 "/>
<path style=" stroke:none;fill-rule:nonzero;fill:rgb(14.117648%,12.54902%,14.117648%);fill-opacity:1;" d="M 36.5 48 C 36.5 49.933594 34.933594 51.5 33 51.5 C 31.066406 51.5 29.5 49.933594 29.5 48 C 29.5 46.066406 31.066406 44.5 33 44.5 C 34.933594 44.5 36.5 46.066406 36.5 48 Z M 36.5 48 "/>
<path style=" stroke:none;fill-rule:nonzero;fill:rgb(14.117648%,12.54902%,14.117648%);fill-opacity:1;" d="M 70.5 48 C 70.5 49.933594 68.933594 51.5 67 51.5 C 65.066406 51.5 63.5 49.933594 63.5 48 C 63.5 46.066406 65.066406 44.5 67 44.5 C 68.933594 44.5 70.5 46.066406 70.5 48 Z M 70.5 48 "/>
<path style=" stroke:none;fill-rule:nonzero;fill:rgb(12.156863%,12.941177%,16.862746%);fill-opacity:1;" d="M 18 88 C 17.597656 88 17.230469 87.757812 17.074219 87.382812 C 16.921875 87.007812 17.007812 86.578125 17.292969 86.292969 C 20.921875 82.664062 21 77.09375 21 70.632812 C 13.257812 64.59375 9 56.574219 9 48 C 9 30.355469 27.394531 16 50 16 C 72.605469 16 91 30.355469 91 48 C 91 65.644531 72.605469 80 50 80 C 46.121094 80 42.289062 79.578125 38.601562 78.746094 C 32.585938 86.78125 23.15625 88 18 88 Z M 50 18 C 28.496094 18 11 31.457031 11 48 C 11 56.078125 15.121094 63.65625 22.605469 69.34375 C 22.855469 69.53125 23 69.828125 23 70.140625 L 23 70.21875 C 23 76.117188 23 81.738281 20.175781 85.925781 C 25.242188 85.566406 32.628906 83.789062 37.359375 77.050781 C 37.597656 76.714844 38.011719 76.558594 38.410156 76.652344 C 42.148438 77.546875 46.046875 78 50 78 C 71.503906 78 89 64.542969 89 48 C 89 31.457031 71.503906 18 50 18 Z M 50 18 "/>
<path style=" stroke:none;fill-rule:nonzero;fill:rgb(12.156863%,12.941177%,16.862746%);fill-opacity:1;" d="M 20.296875 63 C 20.160156 63 20.019531 62.941406 19.921875 62.828125 C 16.046875 58.421875 14 53.296875 14 48 C 14 33.113281 30.148438 21 50 21 C 59.378906 21 68.265625 23.695312 75.015625 28.597656 C 75.238281 28.757812 75.289062 29.070312 75.128906 29.292969 C 74.964844 29.515625 74.648438 29.566406 74.429688 29.402344 C 67.847656 24.628906 59.171875 22 50 22 C 30.699219 22 15 33.664062 15 48 C 15 53.046875 16.960938 57.945312 20.675781 62.171875 C 20.855469 62.378906 20.835938 62.691406 20.628906 62.875 C 20.535156 62.960938 20.414062 63 20.296875 63 Z M 20.296875 63 "/>
<path style=" stroke:none;fill-rule:nonzero;fill:rgb(12.156863%,12.941177%,16.862746%);fill-opacity:1;" d="M 50 75 C 48.816406 75 47.625 74.957031 46.464844 74.871094 C 46.1875 74.851562 45.980469 74.609375 46 74.335938 C 46.019531 74.058594 46.257812 73.84375 46.535156 73.871094 C 47.675781 73.957031 48.839844 74 50 74 C 69.300781 74 85 62.335938 85 48 C 85 43.554688 83.453125 39.164062 80.527344 35.300781 C 80.363281 35.082031 80.40625 34.769531 80.625 34.601562 C 80.847656 34.433594 81.160156 34.476562 81.324219 34.699219 C 84.382812 38.734375 86 43.335938 86 48 C 86 62.886719 69.851562 75 50 75 Z M 50 75 "/>
<path style=" stroke:none;fill-rule:nonzero;fill:rgb(12.156863%,12.941177%,16.862746%);fill-opacity:1;" d="M 79.703125 34 C 79.5625 34 79.425781 33.941406 79.328125 33.828125 C 79.035156 33.496094 78.730469 33.171875 78.421875 32.847656 C 78.226562 32.652344 78.230469 32.335938 78.429688 32.140625 C 78.628906 31.949219 78.945312 31.953125 79.136719 32.152344 C 79.460938 32.484375 79.773438 32.824219 80.078125 33.171875 C 80.261719 33.378906 80.238281 33.695312 80.03125 33.878906 C 79.9375 33.960938 79.820312 34 79.703125 34 Z M 79.703125 34 "/>
<path style=" stroke:none;fill-rule:nonzero;fill:rgb(12.156863%,12.941177%,16.862746%);fill-opacity:1;" d="M 77.210938 31.5 C 77.09375 31.5 76.972656 31.457031 76.878906 31.371094 C 76.648438 31.167969 76.417969 30.96875 76.179688 30.769531 C 75.96875 30.589844 75.9375 30.277344 76.117188 30.066406 C 76.292969 29.851562 76.609375 29.824219 76.820312 30.003906 C 77.066406 30.207031 77.308594 30.414062 77.546875 30.628906 C 77.75 30.8125 77.769531 31.128906 77.585938 31.335938 C 77.484375 31.441406 77.347656 31.5 77.210938 31.5 Z M 77.210938 31.5 "/>
<path style=" stroke:none;fill-rule:nonzero;fill:rgb(12.156863%,12.941177%,16.862746%);fill-opacity:1;" d="M 50 52 C 47.792969 52 46 50.207031 46 48 C 46 45.792969 47.792969 44 50 44 C 52.207031 44 54 45.792969 54 48 C 54 50.207031 52.207031 52 50 52 Z M 50 45 C 48.347656 45 47 46.347656 47 48 C 47 49.652344 48.347656 51 50 51 C 51.652344 51 53 49.652344 53 48 C 53 46.347656 51.652344 45 50 45 Z M 50 45 "/>
<path style=" stroke:none;fill-rule:nonzero;fill:rgb(12.156863%,12.941177%,16.862746%);fill-opacity:1;" d="M 33 52 C 30.792969 52 29 50.207031 29 48 C 29 45.792969 30.792969 44 33 44 C 35.207031 44 37 45.792969 37 48 C 37 50.207031 35.207031 52 33 52 Z M 33 45 C 31.347656 45 30 46.347656 30 48 C 30 49.652344 31.347656 51 33 51 C 34.652344 51 36 49.652344 36 48 C 36 46.347656 34.652344 45 33 45 Z M 33 45 "/>
<path style=" stroke:none;fill-rule:nonzero;fill:rgb(12.156863%,12.941177%,16.862746%);fill-opacity:1;" d="M 67 52 C 64.792969 52 63 50.207031 63 48 C 63 45.792969 64.792969 44 67 44 C 69.207031 44 71 45.792969 71 48 C 71 50.207031 69.207031 52 67 52 Z M 67 45 C 65.347656 45 64 46.347656 64 48 C 64 49.652344 65.347656 51 67 51 C 68.652344 51 70 49.652344 70 48 C 70 46.347656 68.652344 45 67 45 Z M 67 45 "/>
</g>
</svg>